<svg xmlns="http://www.w3.org/2000/svg" xmlns:xlink="http://www.w3.org/1999/xlink" version="1.1" x="0px" y="0px" width="100px" height="100px" viewBox="0 0 100 100" enable-background="new 0 0 100 100" xml:space="preserve">
<g id="Captions">
	<rect x="-192" width="185" height="99"/>
	<rect y="-36" width="100" height="30"/>
	<text transform="matrix(1 0 0 1 66 -19.5)" fill="#000000" font-family="'Helvetica'" font-size="2.4">http://thenounproject.com</text>
	<text transform="matrix(1 0 0 1 7.166 -24.5)"><tspan x="0" y="0" fill="#000000" font-family="'Helvetica-Bold'" font-size="6.1578">The Noun Project</tspan><tspan x="1.12" y="4.8" fill="#000000" font-family="'Helvetica-Bold'" font-size="4">Icon Template</tspan></text>
	<text transform="matrix(1 0 0 1 -178.5 10.5)" fill="#000000" font-family="'Helvetica-Bold'" font-size="6.1578">Reminders</text>
	<line fill="#000000" stroke="#FFFFFF" stroke-miterlimit="10" x1="8" y1="-14.5" x2="18" y2="-14.5"/>
	<line fill="#000000" stroke="#FFFFFF" stroke-miterlimit="10" x1="-179" y1="16.5" x2="-162" y2="16.5"/>
	<g>
		<g>
			<g>
				<rect x="-170.802" y="31.318" fill="#000000" width="8.721" height="8.642"/>
				<path fill="#000000" d="M-164.455,42.312h4.747v-4.703h-4.747V42.312z M-159.266,42.749h-5.63V37.17h5.63V42.749      L-159.266,42.749z M-166.221,44.062h8.279v-8.203h-8.279V44.062L-166.221,44.062z M-157.5,44.5h-9.163v-9.079h9.163V44.5      L-157.5,44.5z"/>
				<polygon fill="#000000" points="-166.149,44.133 -166.292,43.991 -158.013,35.787 -157.871,35.929     "/>
			</g>
		</g>
	</g>
	<rect x="-179" y="58" fill="none" width="35" height="32.5"/>
	<text transform="matrix(1 0 0 1 -179 60.1299)"><tspan x="0" y="0" fill="#000000" font-family="'Helvetica-Bold'" font-size="3">Strokes</tspan><tspan x="0" y="5" fill="#000000" font-family="'Helvetica'" font-size="2.4">Try to keep strokes at 4px</tspan><tspan x="0" y="10" fill="#000000" font-family="'Helvetica'" font-size="2.4">Minimum stroke weight is 2px</tspan><tspan x="0" y="14.5" fill="#000000" font-family="'Helvetica'" font-size="2.4">For thicker strokes use even </tspan><tspan x="0" y="17.5" fill="#000000" font-family="'Helvetica'" font-size="2.4">numbers: 6px, 8px etc.</tspan><tspan x="0" y="22" fill="#000000" font-family="'Helvetica-Bold'" font-size="2.4">Remember to expand strokes </tspan><tspan x="0" y="25" fill="#000000" font-family="'Helvetica-Bold'" font-size="2.4">before saving as an SVG </tspan></text>
	<rect x="-136.5" y="58" fill="none" width="35" height="32.5"/>
	<text transform="matrix(1 0 0 1 -136.5 60.1299)"><tspan x="0" y="0" fill="#000000" font-family="'Helvetica-Bold'" font-size="3">Size</tspan><tspan x="0" y="5" fill="#000000" font-family="'Helvetica'" font-size="2.4">Cannot be wider or taller than </tspan><tspan x="0" y="8.5" fill="#000000" font-family="'Helvetica'" font-size="2.4">100px (artboard size)</tspan><tspan x="0" y="13.5" fill="#000000" font-family="'Helvetica'" font-size="2.4">Scale your icon to fill as much of </tspan><tspan x="0" y="16.5" fill="#000000" font-family="'Helvetica'" font-size="2.4">the artboard as possible</tspan></text>
	<rect x="-94" y="58" fill="none" width="35" height="32.5"/>
	<text transform="matrix(1 0 0 1 -94 60.1299)"><tspan x="0" y="0" fill="#000000" font-family="'Helvetica-Bold'" font-size="3">Ungroup</tspan><tspan x="0" y="5" fill="#000000" font-family="'Helvetica'" font-size="2.4">If your design has more than one </tspan><tspan x="0" y="8" fill="#000000" font-family="'Helvetica'" font-size="2.4">shape, make sure to ungroup</tspan></text>
	<rect x="-50" y="58" fill="none" width="35" height="32.5"/>
	<text transform="matrix(1 0 0 1 -50 60.1299)"><tspan x="0" y="0" fill="#000000" font-family="'Helvetica-Bold'" font-size="3">Save as</tspan><tspan x="0" y="5" fill="#000000" font-family="'Helvetica'" font-size="2.4">Save as .SVG and make sure &#8220;Use </tspan><tspan x="0" y="8" fill="#000000" font-family="'Helvetica'" font-size="2.4">Artboards&#8221; is checked</tspan></text>
	<text transform="matrix(1.0074 0 0 1 -125.542 30.5933)" fill="#000000" font-family="'Helvetica'" font-size="2.5731">100px</text>
	<text transform="matrix(1.0074 0 0 1 -41 39)" fill="#000000" font-family="'Helvetica-Bold'" font-size="5.1462">.SVG</text>
	<rect x="-126.514" y="34.815" fill="#000000" width="10.261" height="10.185"/>
	<rect x="-126.477" y="31.766" fill="#000000" width="0.522" height="2.337"/>
	<rect x="-116.813" y="31.766" fill="#000000" width="0.523" height="2.337"/>
	<rect x="-127" y="32.337" fill="#000000" width="11.233" height="0.572"/>
	<g>
		<rect x="-83.805" y="33.844" fill="#000000" width="10.305" height="10.156"/>
		<rect x="-76.809" y="28.707" fill="#000000" width="3.308" height="3.261"/>
	</g>
	<rect x="-178.5" y="22.5" fill="#000000" stroke="#FFFFFF" stroke-miterlimit="10" width="30" height="30"/>
	<rect x="-136.5" y="22.5" fill="#000000" stroke="#FFFFFF" stroke-miterlimit="10" width="30" height="30"/>
	<rect x="-93.5" y="22.5" fill="#000000" stroke="#FFFFFF" stroke-miterlimit="10" width="30" height="30"/>
	<rect x="-49.5" y="22.5" fill="#000000" stroke="#FFFFFF" stroke-miterlimit="10" width="30" height="30"/>
</g>
<g id="Your_Icon">
	<path d="M96.726,36.809c-0.397-0.192-0.867-0.443-1.388-0.746c-0.508-0.298-1.059-0.654-1.615-1.085   c0.173-0.156,0.377-0.382,0.569-0.587c0.183-0.213,0.361-0.428,0.53-0.667c0.336-0.475,0.672-0.998,0.875-1.677   c0.1-0.339,0.166-0.726,0.151-1.149c-0.013-0.421-0.131-0.898-0.385-1.311c-0.254-0.413-0.623-0.736-0.997-0.943   c-0.38-0.208-0.768-0.318-1.134-0.375c-0.744-0.11-1.426,0.011-2.046,0.218c-0.309,0.112-0.605,0.241-0.878,0.405l-0.105,0.059   l-0.012,0.007c0.01-0.005-0.124,0.08-0.072,0.046l-0.018,0.015l-0.039,0.026l-0.148,0.107c-0.165,0.136-0.369,0.311-0.484,0.464   c-0.136,0.154-0.246,0.338-0.35,0.523c-0.086,0.195-0.168,0.393-0.209,0.595c-0.095,0.403-0.088,0.8-0.021,1.141   c0.125,0.701,0.415,1.231,0.732,1.682c0.28,0.393,0.582,0.726,0.896,1.021c-0.214,0.11-0.431,0.203-0.656,0.28   c-0.157,0.046-0.541,0.105-1.145-0.095c-0.446-0.567-1.407-1.841-2.625-3.224c-4.306-4.906-9.887-8.837-16.279-11.391   c-2.246,6.047-8.075,10.368-14.896,10.368c-7.337,0-13.527-5.003-15.343-11.778c-2.233,0.654-4.388,1.464-6.444,2.426   c-2.254,1.057-5.742,1.113-8.076,0.239c-8.026-3.006-15.937-2.093-19.928,3l12.191,9.457c-1.521,2.021-2.841,4.177-3.928,6.449   c-0.539,1.121-1.862,2.403-3.031,2.829l-5.178,1.872c-1.405,0.511-2.546,2.21-2.549,3.8L2.663,66.088   c-0.005,1.59,1.133,2.468,2.539,1.959c0,0,1.362-0.494,3.042-1.102c0.092-0.034,0.185-0.057,0.279-0.07   c0.542,1.813,1.708,3.357,3.247,4.384c1.035,0.691,2.474,1.876,3.103,2.953c0.417,0.718,0.861,1.426,1.329,2.119   c1.39,2.063,2.107,5.506,1.345,7.876c-1.199,3.724-2.397,7.446-3.595,11.154c-0.513,1.498,0.78,2.815,2.885,2.815   c5.537,0,11.076,0,16.612,0c2.105,0,3.398-1.317,2.885-2.815c-0.408-1.262-0.815-2.549-1.223-3.812   c5.37,2.211,11.326,3.427,17.602,3.427c6.317,0,12.318-1.257,17.717-3.497c-0.414,1.281-0.826,2.605-1.239,3.888   c-0.511,1.492,0.783,2.81,2.889,2.81c5.535,0,11.071,0,16.608,0c2.104,0,3.397-1.317,2.887-2.815   c-1.208-3.739-2.415-7.492-3.623-11.241c-0.764-2.371-0.052-5.816,1.336-7.884c3.962-5.92,6.247-12.871,6.247-20.313   c0-5.354-1.183-10.458-3.323-15.103c-1.044-2.261-1.572-4.039-0.928-4.267c0.385-0.136,0.758-0.31,1.117-0.531   c0.041-0.021,0.077-0.046,0.113-0.069c0.141,0.077,0.282,0.151,0.422,0.221c0.724,0.354,1.413,0.6,2.032,0.771   c0.617,0.169,1.162,0.28,1.614,0.339c0.224,0.036,0.426,0.051,0.604,0.066c0.175,0.018,0.323,0.026,0.445,0.031   c0.242,0.01,0.37,0.013,0.37,0.013s-0.117-0.051-0.339-0.151C97.44,37.152,97.123,36.999,96.726,36.809z M93.339,31.359   c-0.084,0.29-0.257,0.651-0.485,0.992c-0.113,0.175-0.246,0.344-0.375,0.516c-0.133,0.162-0.242,0.313-0.423,0.506l-0.013,0.018   c-0.238-0.295-0.462-0.603-0.625-0.921c-0.165-0.317-0.29-0.648-0.29-0.895c-0.011-0.125,0.016-0.215,0.041-0.279   c0.023-0.067,0.051-0.105,0.113-0.154c0.029-0.042,0.029-0.013,0.046-0.042l0.155-0.097l0.039-0.025l0.02-0.011   c0.06-0.039-0.068,0.042-0.053,0.034l0.007-0.005l0.062-0.028c0.155-0.082,0.318-0.141,0.48-0.192   c0.325-0.097,0.664-0.118,0.921-0.074c0.128,0.021,0.232,0.059,0.296,0.098c0.066,0.039,0.084,0.067,0.096,0.087   c0.014,0.018,0.029,0.046,0.034,0.128C93.387,31.095,93.38,31.216,93.339,31.359z"/>
	<path d="M54.979,1c-7.529,0-13.629,6.103-13.629,13.632c0,7.529,6.1,13.632,13.629,13.632c7.528,0,13.632-6.103,13.632-13.632   C68.61,7.103,62.507,1,54.979,1z M55.688,20.946v1.702H54.11v-1.58c-1.353-0.041-2.625-0.413-3.368-0.907l0.546-1.939   c0.803,0.475,1.954,0.908,3.21,0.908c1.301,0,2.185-0.641,2.185-1.628c0-0.931-0.723-1.529-2.248-2.087   c-2.167-0.782-3.608-1.772-3.608-3.693c0-1.774,1.254-3.136,3.284-3.506V5.962h1.804v2.149c1.354,0.041,2.169,0.351,2.829,0.682   l-0.566,1.897c-0.496-0.228-1.409-0.702-2.811-0.702c-1.444,0-1.966,0.743-1.966,1.446c0,0.846,0.744,1.32,2.498,2.021   c2.312,0.867,3.311,1.982,3.311,3.818C59.207,19.027,57.942,20.574,55.688,20.946z"/>
</g>
</svg>